<?xml version="1.0" encoding="UTF-8"?>
<!DOCTYPE svg PUBLIC "-//W3C//DTD SVG 1.1//EN" "http://www.w3.org/Graphics/SVG/1.1/DTD/svg11.dtd">
<!-- Creator: CorelDRAW 2019 (64 Bit) -->
<svg xmlns="http://www.w3.org/2000/svg" xml:space="preserve" width="211.667mm" height="71.4374mm" version="1.1" style="shape-rendering:geometricPrecision; text-rendering:geometricPrecision; image-rendering:optimizeQuality; fill-rule:evenodd; clip-rule:evenodd"
viewBox="0 0 21166.66 7143.74"
 xmlns:xlink="http://www.w3.org/1999/xlink">
 <defs>
  <style type="text/css">
   <![CDATA[
    .fil0 {fill:#141515}
   ]]>
  </style>
 </defs>
 <g id="Camada_x0020_1">
  <metadata id="CorelCorpID_0Corel-Layer"/>
  <path class="fil0" d="M752.6 917.32c2381.94,-117.43 4993.49,-246.06 7872.46,-387.92 3180.14,-156.7 6718.34,-331.11 10679.83,-526.34 1008.81,-49.71 1861.77,523.01 1861.77,1273.21 0,760.46 0,1522.39 0,2285.04 0,763.38 0,1529.71 0,2295.29 0,759.74 -859.98,1336.49 -1876.7,1283.74 -3990.61,-207.04 -7551.27,-391.76 -10749.69,-557.73 -2891.29,-150.02 -5515.72,-286.01 -7907.12,-410.18 -357.97,-18.59 -641.33,-326.46 -632.98,-684.51 15.17,-650.75 30.37,-1300.99 45.5,-1950.18 15.12,-648.65 30.2,-1295.79 45.3,-1942.9 8.27,-354.44 303.61,-659.86 661.63,-677.52z"/>
 </g>
</svg>
